<svg xmlns="http://www.w3.org/2000/svg" viewBox="0 0 20 20"><defs><style>.cls-1{fill:#ff8b13;}</style></defs><g id="Camada_2" data-name="Camada 2"><g id="Camada_1-2" data-name="Camada 1"><g id="_17_Clock_Icon" data-name="17 Clock Icon"><path id="Vector_2" data-name="Vector 2" class="cls-1" d="M13,9H11V5a1,1,0,0,0-.29-.71A1,1,0,0,0,10,4a1.05,1.05,0,0,0-.71.29A1,1,0,0,0,9,5v5a1,1,0,0,0,.29.71A1.05,1.05,0,0,0,10,11h3a1,1,0,0,0,.71-.29,1,1,0,0,0,0-1.42A1,1,0,0,0,13,9ZM10,0A10,10,0,1,0,20,10a10.1,10.1,0,0,0-.76-3.83A10,10,0,0,0,13.83.76,10.1,10.1,0,0,0,10,0Zm0,18a8,8,0,1,1,5.66-2.34A8,8,0,0,1,10,18Z"/></g></g></g></svg>