<svg xmlns="http://www.w3.org/2000/svg" viewBox="0 0 16.96 20.07"><defs><style>.cls-1{fill:#ff8b13;}</style></defs><g id="Camada_2" data-name="Camada 2"><g id="Camada_1-2" data-name="Camada 1"><g id="_30_Location_Icon" data-name="30 Location Icon"><path id="Vector_3" data-name="Vector 3" class="cls-1" d="M14.48,2.49a8.49,8.49,0,0,0-12,12l5.28,5.28a1,1,0,0,0,.32.22,1,1,0,0,0,.38.08,1,1,0,0,0,.71-.3l5.31-5.33a8.44,8.44,0,0,0,0-11.95ZM13.05,13,8.48,17.6,3.91,13a6.46,6.46,0,1,1,9.14,0ZM5.48,5.42a4.32,4.32,0,0,0,2.2,7.28,4.3,4.3,0,0,0,4.42-1.8,4.21,4.21,0,0,0,.74-2.38,4,4,0,0,0-.32-1.65,4,4,0,0,0-.94-1.4,4.05,4.05,0,0,0-1.39-1,4.35,4.35,0,0,0-3.3,0,4.55,4.55,0,0,0-1.41.93Zm4.69,4.68a2.33,2.33,0,0,1-2.94.31,2.33,2.33,0,0,1-.94-1.26,2.29,2.29,0,0,1,.07-1.57,2.39,2.39,0,0,1,1-1.17A2.35,2.35,0,0,1,9,6.18,2.32,2.32,0,0,1,10.32,7a2.28,2.28,0,0,1-.2,3.11Z"/></g></g></g></svg>